<svg version="1.1" id="Layer_1" xmlns="http://www.w3.org/2000/svg" xmlns:xlink="http://www.w3.org/1999/xlink" x="0px" y="0px"
	 width="100%" viewBox="0 0 710 937" enable-background="new 0 0 710 937" xml:space="preserve">
<path fill="none" opacity="1.000000" stroke="none"
	d="
M288.000000,938.000000
	C192.345520,938.000000 96.691048,938.000000 1.018287,938.000000
	C1.018287,625.718689 1.018287,313.437317 1.018287,1.077990
	C237.584488,1.077990 474.169006,1.077990 710.876770,1.077990
	C710.876770,313.211334 710.876770,625.422729 710.876770,938.000000
	C570.973328,938.000000 430.946381,938.000000 290.173706,937.717896
	C290.537476,936.205200 291.475128,934.740845 292.782715,933.779968
	C307.513153,922.955505 321.945892,911.673279 337.169006,901.586243
	C353.383789,890.841919 370.931396,882.485901 389.322205,875.886292
	C407.042023,869.527527 425.155853,865.232910 443.976654,863.580933
	C443.976654,862.319946 444.212158,861.102905 443.942078,860.010803
	C437.841949,835.344177 431.650055,810.700256 425.552734,786.032959
	C420.651550,766.204651 415.623352,746.403564 411.069153,726.494873
	C406.039001,704.505371 401.456360,682.413147 396.731903,660.354187
	C392.782013,641.911743 388.733917,623.487732 385.051392,604.991455
	C381.454468,586.925171 378.269440,568.777039 374.896088,550.666199
	C371.936676,534.777710 368.729340,518.930908 366.068634,502.992645
	C363.423370,487.147217 361.338104,471.208527 358.979767,455.314819
	C356.001801,435.245300 352.832428,415.202515 350.053589,395.105591
	C347.800507,378.810608 345.920624,362.462189 344.028503,346.119690
	C342.563477,333.466400 341.222321,320.796265 340.031158,308.114349
	C338.575775,292.619995 337.252991,277.112030 336.025085,261.597870
	C334.910675,247.517334 333.929260,233.425201 333.022095,219.329620
	C332.249939,207.331696 331.517792,195.327515 331.040741,183.315277
	C330.528046,170.403519 330.328552,157.479248 330.005859,144.560104
	C329.963257,142.853531 330.000000,141.144974 330.000000,138.940857
	C329.063904,139.663651 328.447754,139.888229 328.351105,140.251160
	C326.531067,147.085480 324.678650,153.913513 323.018707,160.787704
	C317.882782,182.056198 312.900696,203.362045 307.715027,224.618271
	C302.838684,244.606430 297.545410,264.495392 292.872589,284.529907
	C288.919495,301.478668 285.139526,318.492950 282.097717,335.622955
	C277.989136,358.760468 274.431580,382.003510 271.074860,405.264343
	C268.677887,421.874481 266.770050,438.565033 265.073883,455.263367
	C263.714203,468.649414 262.859406,482.092529 262.039917,495.526123
	C261.196381,509.353394 260.028259,523.203918 260.116638,537.037109
	C260.413910,583.543823 258.496033,630.081177 261.955719,676.552612
	C263.226501,693.622253 263.891968,710.736145 265.036438,727.816284
	C265.847260,739.916931 266.931458,752.000732 268.015900,764.081116
	C269.273529,778.090637 270.557617,792.099426 272.027802,806.087769
	C273.561859,820.683960 275.273132,835.262390 277.014862,849.835632
	C278.598999,863.090942 280.338257,876.327576 281.990570,889.574768
	C284.003845,905.715271 285.997742,921.858154 288.000000,938.000000
M445.002625,344.379486
	C447.334534,355.589813 449.829132,366.769348 451.956299,378.018372
	C454.480652,391.367889 456.677094,404.779297 459.037170,418.160065
	C461.678375,433.134827 464.602844,448.065247 466.925781,463.088898
	C469.260803,478.190582 471.006042,493.383392 473.012360,508.535919
	C475.339691,526.113037 477.804901,543.673218 479.953644,561.272095
	C481.517242,574.078491 482.813629,586.922424 483.960266,599.773560
	C485.446564,616.431702 486.717194,633.109802 487.980713,649.786865
	C488.750610,659.949097 489.425598,670.120544 489.976196,680.296936
	C490.733551,694.295288 491.377899,708.300171 491.984283,722.306030
	C492.399078,731.887085 492.774933,741.472290 492.977203,751.059631
	C493.386810,770.474609 493.950714,789.892822 493.927399,809.309021
	C493.898895,833.058777 493.320862,856.807678 493.009583,880.557373
	C492.939697,885.889038 493.163513,891.229492 492.943359,896.553101
	C492.640961,903.864746 492.044220,911.164185 491.573608,918.468872
	C491.998138,918.619690 492.422668,918.770569 492.847198,918.921448
	C494.070618,917.603149 495.366516,916.344482 496.506012,914.957214
	C505.505829,904.000122 514.125488,892.704224 523.584778,882.160950
	C529.369873,875.712952 536.199402,870.123413 542.968079,864.653564
	C555.851868,854.242004 568.619751,843.608459 582.176392,834.125977
	C603.937439,818.904907 626.623901,805.020630 651.359314,795.088257
	C667.838257,788.471191 684.712036,782.807129 701.557495,777.158875
	C704.913757,776.033569 705.337952,775.495422 704.130493,772.229126
	C697.578674,754.506348 691.369690,736.657410 684.959839,718.881714
	C677.896667,699.294434 670.916504,679.674561 663.591064,660.184998
	C651.533447,628.105408 639.286072,596.096680 627.007690,564.100647
	C616.221680,535.993652 605.532532,507.845337 594.345093,479.897614
	C582.260925,449.709778 569.758789,419.687347 557.231689,389.679291
	C546.986694,365.137787 536.648254,340.630829 525.960205,316.280151
	C516.291443,294.251556 506.347656,272.335022 496.060150,250.589035
	C484.930176,227.062225 473.557526,203.639374 461.740479,180.451584
	C451.008789,159.393417 439.847382,138.538589 428.296204,117.918587
	C418.871796,101.095184 409.087860,84.427689 398.559570,68.280357
	C386.840363,50.306423 374.186798,32.936413 361.740601,15.445399
	C358.543243,10.952064 354.595917,6.992404 350.993134,2.787555
	C387.727234,115.074760 420.882141,228.034042 445.002625,344.379486
M80.002762,862.449219
	C81.668526,872.840942 83.299065,883.238647 85.039696,893.617798
	C85.288177,895.099426 86.069786,896.491577 86.604660,897.925171
	C87.406021,896.740479 88.550522,895.660828 88.950645,894.353333
	C90.922554,887.909607 92.733406,881.415527 94.534843,874.920837
	C100.711967,852.650757 106.842842,830.367920 113.035339,808.102112
	C114.453537,803.002747 116.047478,797.952271 117.560524,792.879333
	C118.804520,794.443604 119.083305,795.838196 118.968582,797.199646
	C118.020340,808.453186 116.161171,819.702087 116.181084,830.949585
	C116.218269,851.952637 117.319588,872.954224 118.020302,893.955017
	C118.101624,896.392395 118.721733,897.691406 121.696404,896.125793
	C125.361328,894.196899 129.403152,892.999268 133.210693,891.323425
	C147.741608,884.927856 162.204727,878.377014 176.767288,872.054932
	C192.482056,865.232666 208.279816,858.601685 224.332794,851.763062
	C214.297440,826.347290 209.290649,800.105103 205.151337,773.723083
	C202.750458,758.420898 201.345093,742.937561 200.097977,727.486816
	C198.970581,713.519714 198.036621,699.481689 198.137283,685.482910
	C198.320709,659.975586 199.222000,634.470581 200.055374,608.972229
	C200.382690,598.957397 201.150604,588.946838 202.038498,578.962830
	C203.559097,561.864685 205.242065,544.779541 207.030838,527.707153
	C208.202057,516.528870 209.355713,505.331970 211.095200,494.234039
	C213.801514,476.967621 216.859726,459.752563 220.025909,442.563110
	C223.594208,423.190552 226.440201,403.608612 231.387909,384.582581
	C241.443481,345.914612 252.710663,307.561920 263.452301,269.071991
	C264.802521,264.233795 265.994537,259.351440 267.259857,254.489563
	C265.839355,254.958344 265.284607,255.709000 264.937317,256.545746
	C258.613373,271.781830 252.228485,286.993500 246.032623,302.281677
	C238.933594,319.798492 231.987228,337.377289 225.010635,354.943512
	C216.319489,376.826721 207.627182,398.709625 199.005280,420.620148
	C189.621613,444.466431 180.316849,468.343811 170.980072,492.208557
	C162.985123,512.643555 154.948685,533.062378 147.013016,553.520325
	C139.020660,574.124329 131.176743,594.786011 123.182663,615.389343
	C113.506950,640.326904 103.707672,665.216492 94.025070,690.151428
	C84.286140,715.231384 74.634354,740.345093 64.925819,765.436829
	C59.840538,778.579651 54.637817,791.678223 49.723511,804.884399
	C49.210621,806.262695 49.701126,809.019958 50.737896,809.810608
	C59.241714,816.295654 65.419662,824.719238 69.836723,834.146790
	C73.961349,842.950256 76.667320,852.418274 80.002762,862.449219
M235.030899,192.678513
	C247.218399,168.702911 259.405884,144.727310 271.593384,120.751709
	C271.192047,120.495583 270.790710,120.239464 270.389343,119.983345
	C269.630676,120.832565 268.771027,121.612022 268.128784,122.541672
	C260.792084,133.161530 253.427429,143.762894 246.187500,154.448639
	C224.030579,187.151138 201.778198,219.790436 179.851852,252.647110
	C165.637695,273.947052 151.868195,295.545197 138.015640,317.084412
	C129.224808,330.753174 120.600388,344.529785 111.984871,358.310272
	C99.189255,378.776794 86.414070,399.256531 73.730713,419.792725
	C62.660316,437.717346 51.698997,455.709534 40.744064,473.705139
	C28.867075,493.215363 17.192850,512.851501 5.070672,532.207581
	C3.113990,535.331909 3.034584,537.825134 4.304698,540.656616
	C14.354524,563.060852 23.368158,585.869690 29.799656,609.580139
	C34.949699,628.566345 38.708794,647.858826 38.983547,667.649841
	C39.085361,674.983643 39.149158,682.323914 38.956303,689.654053
	C38.778210,696.423035 38.233372,703.182373 37.850060,709.945923
	C38.489594,710.610596 39.129131,711.275269 39.768669,711.939941
	C40.175819,710.533813 40.456852,709.076050 41.008640,707.729248
	C53.093880,678.229797 65.548828,648.876282 77.217300,619.213318
	C87.593315,592.835999 97.661797,566.309692 106.862907,539.504822
	C119.927574,501.444611 131.708572,462.944458 144.709824,424.861603
	C158.685806,383.923584 173.108871,343.129944 187.989182,302.512268
	C195.586411,281.774689 204.347748,261.446777 213.075058,241.145279
	C219.980392,225.082047 227.636215,209.341431 235.030899,192.678513
z"/>
<path fill="#FFFFFF" opacity="1.000000" stroke="none"
	d="
M288.333313,938.000000
	C285.997742,921.858154 284.003845,905.715271 281.990570,889.574768
	C280.338257,876.327576 278.598999,863.090942 277.014862,849.835632
	C275.273132,835.262390 273.561859,820.683960 272.027802,806.087769
	C270.557617,792.099426 269.273529,778.090637 268.015900,764.081116
	C266.931458,752.000732 265.847260,739.916931 265.036438,727.816284
	C263.891968,710.736145 263.226501,693.622253 261.955719,676.552612
	C258.496033,630.081177 260.413910,583.543823 260.116638,537.037109
	C260.028259,523.203918 261.196381,509.353394 262.039917,495.526123
	C262.859406,482.092529 263.714203,468.649414 265.073883,455.263367
	C266.770050,438.565033 268.677887,421.874481 271.074860,405.264343
	C274.431580,382.003510 277.989136,358.760468 282.097717,335.622955
	C285.139526,318.492950 288.919495,301.478668 292.872589,284.529907
	C297.545410,264.495392 302.838684,244.606430 307.715027,224.618271
	C312.900696,203.362045 317.882782,182.056198 323.018707,160.787704
	C324.678650,153.913513 326.531067,147.085480 328.351105,140.251160
	C328.447754,139.888229 329.063904,139.663651 330.000000,138.940857
	C330.000000,141.144974 329.963257,142.853531 330.005859,144.560104
	C330.328552,157.479248 330.528046,170.403519 331.040741,183.315277
	C331.517792,195.327515 332.249939,207.331696 333.022095,219.329620
	C333.929260,233.425201 334.910675,247.517334 336.025085,261.597870
	C337.252991,277.112030 338.575775,292.619995 340.031158,308.114349
	C341.222321,320.796265 342.563477,333.466400 344.028503,346.119690
	C345.920624,362.462189 347.800507,378.810608 350.053589,395.105591
	C352.832428,415.202515 356.001801,435.245300 358.979767,455.314819
	C361.338104,471.208527 363.423370,487.147217 366.068634,502.992645
	C368.729340,518.930908 371.936676,534.777710 374.896088,550.666199
	C378.269440,568.777039 381.454468,586.925171 385.051392,604.991455
	C388.733917,623.487732 392.782013,641.911743 396.731903,660.354187
	C401.456360,682.413147 406.039001,704.505371 411.069153,726.494873
	C415.623352,746.403564 420.651550,766.204651 425.552734,786.032959
	C431.650055,810.700256 437.841949,835.344177 443.942078,860.010803
	C444.212158,861.102905 443.976654,862.319946 443.976654,863.580933
	C425.155853,865.232910 407.042023,869.527527 389.322205,875.886292
	C370.931396,882.485901 353.383789,890.841919 337.169006,901.586243
	C321.945892,911.673279 307.513153,922.955505 292.782715,933.779968
	C291.475128,934.740845 290.537476,936.205200 289.713989,937.717896
	C289.555542,938.000000 289.111115,938.000000 288.333313,938.000000
z"/>
<path fill="#FFFFFF" opacity="1.000000" stroke="none"
	d="
M445.001312,343.941467
	C420.882141,228.034042 387.727234,115.074760 350.993134,2.787555
	C354.595917,6.992404 358.543243,10.952064 361.740601,15.445399
	C374.186798,32.936413 386.840363,50.306423 398.559570,68.280357
	C409.087860,84.427689 418.871796,101.095184 428.296204,117.918587
	C439.847382,138.538589 451.008789,159.393417 461.740479,180.451584
	C473.557526,203.639374 484.930176,227.062225 496.060150,250.589035
	C506.347656,272.335022 516.291443,294.251556 525.960205,316.280151
	C536.648254,340.630829 546.986694,365.137787 557.231689,389.679291
	C569.758789,419.687347 582.260925,449.709778 594.345093,479.897614
	C605.532532,507.845337 616.221680,535.993652 627.007690,564.100647
	C639.286072,596.096680 651.533447,628.105408 663.591064,660.184998
	C670.916504,679.674561 677.896667,699.294434 684.959839,718.881714
	C691.369690,736.657410 697.578674,754.506348 704.130493,772.229126
	C705.337952,775.495422 704.913757,776.033569 701.557495,777.158875
	C684.712036,782.807129 667.838257,788.471191 651.359314,795.088257
	C626.623901,805.020630 603.937439,818.904907 582.176392,834.125977
	C568.619751,843.608459 555.851868,854.242004 542.968079,864.653564
	C536.199402,870.123413 529.369873,875.712952 523.584778,882.160950
	C514.125488,892.704224 505.505829,904.000122 496.506012,914.957214
	C495.366516,916.344482 494.070618,917.603149 492.847198,918.921448
	C492.422668,918.770569 491.998138,918.619690 491.573608,918.468872
	C492.044220,911.164185 492.640961,903.864746 492.943359,896.553101
	C493.163513,891.229492 492.939697,885.889038 493.009583,880.557373
	C493.320862,856.807678 493.898895,833.058777 493.927399,809.309021
	C493.950714,789.892822 493.386810,770.474609 492.977203,751.059631
	C492.774933,741.472290 492.399078,731.887085 491.984283,722.306030
	C491.377899,708.300171 490.733551,694.295288 489.976196,680.296936
	C489.425598,670.120544 488.750610,659.949097 487.980713,649.786865
	C486.717194,633.109802 485.446564,616.431702 483.960266,599.773560
	C482.813629,586.922424 481.517242,574.078491 479.953644,561.272095
	C477.804901,543.673218 475.339691,526.113037 473.012360,508.535919
	C471.006042,493.383392 469.260803,478.190582 466.925781,463.088898
	C464.602844,448.065247 461.678375,433.134827 459.037170,418.160065
	C456.677094,404.779297 454.480652,391.367889 451.956299,378.018372
	C449.829132,366.769348 447.334534,355.589813 445.001312,343.941467
z"/>
<path fill="#FFFFFF" opacity="1.000000" stroke="none"
	d="
M80.000244,862.021484
	C76.667320,852.418274 73.961349,842.950256 69.836723,834.146790
	C65.419662,824.719238 59.241714,816.295654 50.737896,809.810608
	C49.701126,809.019958 49.210621,806.262695 49.723511,804.884399
	C54.637817,791.678223 59.840538,778.579651 64.925819,765.436829
	C74.634354,740.345093 84.286140,715.231384 94.025070,690.151428
	C103.707672,665.216492 113.506950,640.326904 123.182663,615.389343
	C131.176743,594.786011 139.020660,574.124329 147.013016,553.520325
	C154.948685,533.062378 162.985123,512.643555 170.980072,492.208557
	C180.316849,468.343811 189.621613,444.466431 199.005280,420.620148
	C207.627182,398.709625 216.319489,376.826721 225.010635,354.943512
	C231.987228,337.377289 238.933594,319.798492 246.032623,302.281677
	C252.228485,286.993500 258.613373,271.781830 264.937317,256.545746
	C265.284607,255.709000 265.839355,254.958344 267.259857,254.489563
	C265.994537,259.351440 264.802521,264.233795 263.452301,269.071991
	C252.710663,307.561920 241.443481,345.914612 231.387909,384.582581
	C226.440201,403.608612 223.594208,423.190552 220.025909,442.563110
	C216.859726,459.752563 213.801514,476.967621 211.095200,494.234039
	C209.355713,505.331970 208.202057,516.528870 207.030838,527.707153
	C205.242065,544.779541 203.559097,561.864685 202.038498,578.962830
	C201.150604,588.946838 200.382690,598.957397 200.055374,608.972229
	C199.222000,634.470581 198.320709,659.975586 198.137283,685.482910
	C198.036621,699.481689 198.970581,713.519714 200.097977,727.486816
	C201.345093,742.937561 202.750458,758.420898 205.151337,773.723083
	C209.290649,800.105103 214.297440,826.347290 224.332794,851.763062
	C208.279816,858.601685 192.482056,865.232666 176.767288,872.054932
	C162.204727,878.377014 147.741608,884.927856 133.210693,891.323425
	C129.403152,892.999268 125.361328,894.196899 121.696404,896.125793
	C118.721733,897.691406 118.101624,896.392395 118.020302,893.955017
	C117.319588,872.954224 116.218269,851.952637 116.181084,830.949585
	C116.161171,819.702087 118.020340,808.453186 118.968582,797.199646
	C119.083305,795.838196 118.804520,794.443604 117.560524,792.879333
	C116.047478,797.952271 114.453537,803.002747 113.035339,808.102112
	C106.842842,830.367920 100.711967,852.650757 94.534843,874.920837
	C92.733406,881.415527 90.922554,887.909607 88.950645,894.353333
	C88.550522,895.660828 87.406021,896.740479 86.604660,897.925171
	C86.069786,896.491577 85.288177,895.099426 85.039696,893.617798
	C83.299065,883.238647 81.668526,872.840942 80.000244,862.021484
z"/>
<path fill="#FFFFFF" opacity="1.000000" stroke="none"
	d="
M234.994827,193.068024
	C227.636215,209.341431 219.980392,225.082047 213.075058,241.145279
	C204.347748,261.446777 195.586411,281.774689 187.989182,302.512268
	C173.108871,343.129944 158.685806,383.923584 144.709824,424.861603
	C131.708572,462.944458 119.927574,501.444611 106.862907,539.504822
	C97.661797,566.309692 87.593315,592.835999 77.217300,619.213318
	C65.548828,648.876282 53.093880,678.229797 41.008640,707.729248
	C40.456852,709.076050 40.175819,710.533813 39.768669,711.939941
	C39.129131,711.275269 38.489594,710.610596 37.850060,709.945923
	C38.233372,703.182373 38.778210,696.423035 38.956303,689.654053
	C39.149158,682.323914 39.085361,674.983643 38.983547,667.649841
	C38.708794,647.858826 34.949699,628.566345 29.799656,609.580139
	C23.368158,585.869690 14.354524,563.060852 4.304698,540.656616
	C3.034584,537.825134 3.113990,535.331909 5.070672,532.207581
	C17.192850,512.851501 28.867075,493.215363 40.744064,473.705139
	C51.698997,455.709534 62.660316,437.717346 73.730713,419.792725
	C86.414070,399.256531 99.189255,378.776794 111.984871,358.310272
	C120.600388,344.529785 129.224808,330.753174 138.015640,317.084412
	C151.868195,295.545197 165.637695,273.947052 179.851852,252.647110
	C201.778198,219.790436 224.030579,187.151138 246.187500,154.448639
	C253.427429,143.762894 260.792084,133.161530 268.128784,122.541672
	C268.771027,121.612022 269.630676,120.832565 270.389343,119.983345
	C270.790710,120.239464 271.192047,120.495583 271.593384,120.751709
	C259.405884,144.727310 247.218399,168.702911 234.994827,193.068024
z"/>
</svg>
